<?xml version="1.0" encoding="UTF-8" standalone="no"?>
<!-- Created with Inkscape (http://www.inkscape.org/) -->

<svg
   width="123.41456"
   height="123.41456"
   viewBox="0 0 32.653434 32.653435"
   version="1.1"
   id="svg1"
   inkscape:version="1.3 (0e150ed6c4, 2023-07-21)"
   sodipodi:docname="icon.svg"
   xmlns:inkscape="http://www.inkscape.org/namespaces/inkscape"
   xmlns:sodipodi="http://sodipodi.sourceforge.net/DTD/sodipodi-0.dtd"
   xmlns="http://www.w3.org/2000/svg"
   xmlns:svg="http://www.w3.org/2000/svg">
  <sodipodi:namedview
     id="namedview1"
     pagecolor="#ffffff"
     bordercolor="#666666"
     borderopacity="1.0"
     inkscape:showpageshadow="2"
     inkscape:pageopacity="0.0"
     inkscape:pagecheckerboard="0"
     inkscape:deskcolor="#d1d1d1"
     inkscape:document-units="mm"
     inkscape:zoom="4.2179991"
     inkscape:cx="31.768618"
     inkscape:cy="87.837857"
     inkscape:window-width="1920"
     inkscape:window-height="1011"
     inkscape:window-x="0"
     inkscape:window-y="0"
     inkscape:window-maximized="1"
     inkscape:current-layer="layer1" />
  <defs
     id="defs1" />
  <g
     inkscape:label="Layer 1"
     inkscape:groupmode="layer"
     id="layer1"
     transform="translate(-13.335413,-10.773399)">
    <circle
       style="opacity:0.917184;fill:none;stroke-width:0.52916667;paint-order:markers stroke fill;stroke:#000000;stroke-opacity:0.44154876;stroke-dasharray:4.23333359, 4.23333359;stroke-dashoffset:0"
       id="path1"
       cx="29.66213"
       cy="27.100117"
       r="16.326717" />
    <path
       style="font-size:7.05556px;line-height:1.25;font-family:'Source Sans Pro';-inkscape-font-specification:'Source Sans Pro';fill:#000000;fill-opacity:0.443137;stroke-width:0.264583"
       d="M 28.326714,30.883796 H 30.357659 C 29.912521,27.016653 34.391728,25.542131 34.391728,21.89756 34.391728,19.143262 32.527711,17.44617 29.717772,17.44617 27.686826,17.44617 26.10102,18.419913 24.932533,19.75533 L 26.267949,20.95164 C 27.130403,19.977897 28.21543,19.365833 29.439559,19.365833 31.220114,19.365833 32.138215,20.562142 32.138215,22.036666 32.138215,24.985708 27.714649,26.571515 28.326714,30.883796 Z M 29.383917,36.754063 C 30.302017,36.754063 31.053188,36.03071 31.053188,35.00133 31.053188,33.944123 30.302017,33.220775 29.383917,33.220775 28.465821,33.220775 27.742468,33.944123 27.742468,35.00133 27.742468,36.03071 28.465821,36.754063 29.383917,36.754063 Z"
       id="text1"
       aria-label="?" />
  </g>
</svg>
